%TF.GenerationSoftware,KiCad,Pcbnew,(6.0.2)*%
%TF.CreationDate,2022-03-02T15:27:46+00:00*%
%TF.ProjectId,305_Right_Hotswap,3330355f-5269-4676-9874-5f486f747377,rev?*%
%TF.SameCoordinates,Original*%
%TF.FileFunction,Copper,L2,Bot*%
%TF.FilePolarity,Positive*%
%FSLAX46Y46*%
G04 Gerber Fmt 4.6, Leading zero omitted, Abs format (unit mm)*
G04 Created by KiCad (PCBNEW (6.0.2)) date 2022-03-02 15:27:46*
%MOMM*%
%LPD*%
G01*
G04 APERTURE LIST*
%TA.AperFunction,ComponentPad*%
%ADD10C,1.524000*%
%TD*%
%TA.AperFunction,ComponentPad*%
%ADD11C,2.500000*%
%TD*%
G04 APERTURE END LIST*
D10*
%TO.P,U1,1,1*%
%TO.N,GND*%
X58150000Y-24670000D03*
%TO.P,U1,2,2*%
%TO.N,NO*%
X58150000Y-27210000D03*
%TD*%
D11*
%TO.P,SW1,1,COM*%
%TO.N,GND*%
X40640000Y-25400000D03*
%TO.P,SW1,2,NO*%
%TO.N,NO*%
X45720000Y-25400000D03*
%TO.P,SW1,3,Dummy*%
%TO.N,unconnected-(SW1-Pad3)*%
X50800000Y-25400000D03*
%TD*%
%TA.AperFunction,Conductor*%
%TO.N,GND*%
G36*
X39654121Y-20428002D02*
G01*
X39700614Y-20481658D01*
X39712000Y-20534000D01*
X39712000Y-21891298D01*
X39711998Y-21892068D01*
X39711524Y-21969652D01*
X39713990Y-21978281D01*
X39713991Y-21978286D01*
X39719639Y-21998048D01*
X39723217Y-22014809D01*
X39726130Y-22035152D01*
X39726133Y-22035162D01*
X39727405Y-22044045D01*
X39738021Y-22067395D01*
X39744464Y-22084907D01*
X39751512Y-22109565D01*
X39767274Y-22134548D01*
X39775404Y-22149614D01*
X39787633Y-22176510D01*
X39804374Y-22195939D01*
X39815479Y-22210947D01*
X39829160Y-22232631D01*
X39835888Y-22238573D01*
X39851296Y-22252181D01*
X39863340Y-22264373D01*
X39882619Y-22286747D01*
X39890147Y-22291626D01*
X39890150Y-22291629D01*
X39904139Y-22300696D01*
X39919013Y-22311986D01*
X39938228Y-22328956D01*
X39946354Y-22332771D01*
X39946355Y-22332772D01*
X39952021Y-22335432D01*
X39964966Y-22341510D01*
X39979935Y-22349824D01*
X40004727Y-22365893D01*
X40021650Y-22370954D01*
X40029290Y-22373239D01*
X40046736Y-22379901D01*
X40069948Y-22390799D01*
X40099130Y-22395343D01*
X40115849Y-22399126D01*
X40135536Y-22405014D01*
X40135539Y-22405015D01*
X40144141Y-22407587D01*
X40153116Y-22407642D01*
X40153117Y-22407642D01*
X40159810Y-22407683D01*
X40178556Y-22407797D01*
X40179328Y-22407830D01*
X40180423Y-22408000D01*
X40211298Y-22408000D01*
X40212068Y-22408002D01*
X40285716Y-22408452D01*
X40285717Y-22408452D01*
X40289652Y-22408476D01*
X40290996Y-22408092D01*
X40292341Y-22408000D01*
X51211298Y-22408000D01*
X51212069Y-22408002D01*
X51289652Y-22408476D01*
X51298281Y-22406010D01*
X51298286Y-22406009D01*
X51318048Y-22400361D01*
X51334809Y-22396783D01*
X51355152Y-22393870D01*
X51355162Y-22393867D01*
X51364045Y-22392595D01*
X51387395Y-22381979D01*
X51404907Y-22375536D01*
X51420937Y-22370954D01*
X51429565Y-22368488D01*
X51454548Y-22352726D01*
X51469614Y-22344596D01*
X51496510Y-22332367D01*
X51515939Y-22315626D01*
X51530947Y-22304521D01*
X51545039Y-22295630D01*
X51552631Y-22290840D01*
X51572182Y-22268703D01*
X51584374Y-22256659D01*
X51599949Y-22243239D01*
X51599950Y-22243237D01*
X51606747Y-22237381D01*
X51611626Y-22229853D01*
X51611629Y-22229850D01*
X51620696Y-22215861D01*
X51631986Y-22200987D01*
X51643012Y-22188502D01*
X51648956Y-22181772D01*
X51661510Y-22155034D01*
X51669824Y-22140065D01*
X51685893Y-22115273D01*
X51693239Y-22090709D01*
X51699901Y-22073264D01*
X51706983Y-22058179D01*
X51710799Y-22050052D01*
X51715343Y-22020870D01*
X51719126Y-22004151D01*
X51725014Y-21984464D01*
X51725015Y-21984461D01*
X51727587Y-21975859D01*
X51727797Y-21941444D01*
X51727830Y-21940672D01*
X51728000Y-21939577D01*
X51728000Y-21908702D01*
X51728002Y-21907932D01*
X51728452Y-21834284D01*
X51728452Y-21834283D01*
X51728476Y-21830348D01*
X51728092Y-21829004D01*
X51728000Y-21827659D01*
X51728000Y-20534000D01*
X51748002Y-20465879D01*
X51801658Y-20419386D01*
X51854000Y-20408000D01*
X53321823Y-20408000D01*
X53389944Y-20428002D01*
X53436437Y-20481658D01*
X53446541Y-20551932D01*
X53417047Y-20616512D01*
X53387658Y-20641433D01*
X53330878Y-20676228D01*
X53150384Y-20830384D01*
X52996228Y-21010878D01*
X52872206Y-21213264D01*
X52870313Y-21217834D01*
X52870311Y-21217838D01*
X52798171Y-21392000D01*
X52781370Y-21432561D01*
X52780215Y-21437373D01*
X52727113Y-21658554D01*
X52727112Y-21658560D01*
X52725958Y-21663367D01*
X52707808Y-21893989D01*
X52707335Y-21900000D01*
X52725958Y-22136633D01*
X52727112Y-22141440D01*
X52727113Y-22141446D01*
X52750432Y-22238573D01*
X52781370Y-22367439D01*
X52783263Y-22372010D01*
X52783264Y-22372012D01*
X52798089Y-22407801D01*
X52872206Y-22586736D01*
X52996228Y-22789122D01*
X53150384Y-22969616D01*
X53330878Y-23123772D01*
X53533264Y-23247794D01*
X53537834Y-23249687D01*
X53537838Y-23249689D01*
X53744729Y-23335386D01*
X53752561Y-23338630D01*
X53833660Y-23358100D01*
X53978554Y-23392887D01*
X53978560Y-23392888D01*
X53983367Y-23394042D01*
X54220000Y-23412665D01*
X54456633Y-23394042D01*
X54461440Y-23392888D01*
X54461446Y-23392887D01*
X54606340Y-23358100D01*
X54687439Y-23338630D01*
X54695271Y-23335386D01*
X54902162Y-23249689D01*
X54902166Y-23249687D01*
X54906736Y-23247794D01*
X55109122Y-23123772D01*
X55289616Y-22969616D01*
X55443772Y-22789122D01*
X55446356Y-22784905D01*
X55446360Y-22784900D01*
X55483014Y-22725085D01*
X55535661Y-22677453D01*
X55605703Y-22665846D01*
X55670900Y-22693949D01*
X55710555Y-22752839D01*
X55716447Y-22790725D01*
X55716989Y-23142935D01*
X55716987Y-23143899D01*
X55716524Y-23219652D01*
X55718989Y-23228275D01*
X55718989Y-23228279D01*
X55724775Y-23248524D01*
X55728325Y-23265091D01*
X55732627Y-23294803D01*
X55736354Y-23302966D01*
X55736354Y-23302967D01*
X55743074Y-23317687D01*
X55749600Y-23335382D01*
X55756512Y-23359565D01*
X55761301Y-23367155D01*
X55772529Y-23384950D01*
X55780587Y-23399857D01*
X55789328Y-23419004D01*
X55789331Y-23419008D01*
X55793059Y-23427175D01*
X55809510Y-23446208D01*
X55820741Y-23461362D01*
X55829370Y-23475040D01*
X55829372Y-23475043D01*
X55834160Y-23482631D01*
X55840886Y-23488571D01*
X55856663Y-23502505D01*
X55868578Y-23514549D01*
X55882344Y-23530475D01*
X55888214Y-23537266D01*
X55895752Y-23542135D01*
X55895754Y-23542137D01*
X55909343Y-23550915D01*
X55924384Y-23562313D01*
X55943228Y-23578956D01*
X55951353Y-23582770D01*
X55951355Y-23582772D01*
X55970403Y-23591715D01*
X55985221Y-23599931D01*
X56002901Y-23611352D01*
X56002905Y-23611354D01*
X56010444Y-23616224D01*
X56019047Y-23618783D01*
X56019048Y-23618783D01*
X56034549Y-23623393D01*
X56052178Y-23630109D01*
X56074948Y-23640799D01*
X56095705Y-23644031D01*
X56104618Y-23645419D01*
X56121147Y-23649146D01*
X56141316Y-23655144D01*
X56141318Y-23655144D01*
X56149922Y-23657703D01*
X56158899Y-23657744D01*
X56160106Y-23657749D01*
X56184179Y-23657859D01*
X56184643Y-23657878D01*
X56185423Y-23658000D01*
X56214553Y-23658000D01*
X56215129Y-23658001D01*
X56295434Y-23658368D01*
X56296464Y-23658072D01*
X56297507Y-23658000D01*
X57066183Y-23658000D01*
X57134304Y-23678002D01*
X57180797Y-23731658D01*
X57190901Y-23801932D01*
X57169396Y-23856270D01*
X57049102Y-24028070D01*
X57043624Y-24037556D01*
X56954355Y-24228993D01*
X56950609Y-24239285D01*
X56895941Y-24443309D01*
X56894038Y-24454104D01*
X56875628Y-24664525D01*
X56875628Y-24675475D01*
X56894038Y-24885896D01*
X56895941Y-24896691D01*
X56950609Y-25100715D01*
X56954355Y-25111007D01*
X57043623Y-25302441D01*
X57049103Y-25311932D01*
X57079794Y-25355765D01*
X57090271Y-25364140D01*
X57103718Y-25357072D01*
X58060905Y-24399885D01*
X58123217Y-24365859D01*
X58194032Y-24370924D01*
X58239095Y-24399885D01*
X59197003Y-25357793D01*
X59208777Y-25364223D01*
X59220793Y-25354926D01*
X59250897Y-25311932D01*
X59256377Y-25302441D01*
X59345645Y-25111007D01*
X59349391Y-25100715D01*
X59404059Y-24896691D01*
X59405962Y-24885896D01*
X59424372Y-24675475D01*
X59424372Y-24664525D01*
X59405962Y-24454104D01*
X59404059Y-24443309D01*
X59349391Y-24239285D01*
X59345645Y-24228993D01*
X59256376Y-24037556D01*
X59250898Y-24028070D01*
X59130604Y-23856270D01*
X59107916Y-23788996D01*
X59125201Y-23720136D01*
X59176971Y-23671552D01*
X59233817Y-23658000D01*
X59840442Y-23658000D01*
X59908563Y-23678002D01*
X59955056Y-23731658D01*
X59966442Y-23784111D01*
X59962582Y-28169727D01*
X59962558Y-28196621D01*
X59942496Y-28264724D01*
X59888799Y-28311170D01*
X59836558Y-28322510D01*
X59138438Y-28322510D01*
X59070317Y-28302508D01*
X59023824Y-28248852D01*
X59013720Y-28178578D01*
X59043214Y-28113998D01*
X59049343Y-28107415D01*
X59126977Y-28029781D01*
X59166998Y-27972626D01*
X59251331Y-27852185D01*
X59251332Y-27852183D01*
X59254488Y-27847676D01*
X59256811Y-27842694D01*
X59256814Y-27842689D01*
X59346117Y-27651178D01*
X59346118Y-27651177D01*
X59348440Y-27646196D01*
X59405978Y-27431463D01*
X59425353Y-27210000D01*
X59405978Y-26988537D01*
X59363258Y-26829104D01*
X59349863Y-26779114D01*
X59349862Y-26779112D01*
X59348440Y-26773804D01*
X59295739Y-26660787D01*
X59256814Y-26577311D01*
X59256811Y-26577306D01*
X59254488Y-26572324D01*
X59251331Y-26567815D01*
X59130136Y-26394730D01*
X59130134Y-26394727D01*
X59126977Y-26390219D01*
X58969781Y-26233023D01*
X58965273Y-26229866D01*
X58965270Y-26229864D01*
X58810333Y-26121376D01*
X58787677Y-26105512D01*
X58782695Y-26103189D01*
X58782690Y-26103186D01*
X58677035Y-26053919D01*
X58623750Y-26007002D01*
X58604289Y-25938725D01*
X58624831Y-25870765D01*
X58677035Y-25825529D01*
X58782445Y-25776376D01*
X58791931Y-25770898D01*
X58835764Y-25740207D01*
X58844139Y-25729729D01*
X58837071Y-25716281D01*
X58162812Y-25042022D01*
X58148868Y-25034408D01*
X58147035Y-25034539D01*
X58140420Y-25038790D01*
X57462207Y-25717003D01*
X57455777Y-25728777D01*
X57465074Y-25740793D01*
X57508069Y-25770898D01*
X57517555Y-25776376D01*
X57622965Y-25825529D01*
X57676250Y-25872446D01*
X57695711Y-25940723D01*
X57675169Y-26008683D01*
X57622965Y-26053919D01*
X57517311Y-26103186D01*
X57517306Y-26103189D01*
X57512324Y-26105512D01*
X57507817Y-26108668D01*
X57507815Y-26108669D01*
X57334730Y-26229864D01*
X57334727Y-26229866D01*
X57330219Y-26233023D01*
X57173023Y-26390219D01*
X57169866Y-26394727D01*
X57169864Y-26394730D01*
X57048669Y-26567815D01*
X57045512Y-26572324D01*
X57043189Y-26577306D01*
X57043186Y-26577311D01*
X57004261Y-26660787D01*
X56951560Y-26773804D01*
X56950138Y-26779112D01*
X56950137Y-26779114D01*
X56936742Y-26829104D01*
X56894022Y-26988537D01*
X56874647Y-27210000D01*
X56894022Y-27431463D01*
X56951560Y-27646196D01*
X56953882Y-27651177D01*
X56953883Y-27651178D01*
X57043186Y-27842689D01*
X57043189Y-27842694D01*
X57045512Y-27847676D01*
X57048668Y-27852183D01*
X57048669Y-27852185D01*
X57133003Y-27972626D01*
X57173023Y-28029781D01*
X57250657Y-28107415D01*
X57284683Y-28169727D01*
X57279618Y-28240542D01*
X57237071Y-28297378D01*
X57170551Y-28322189D01*
X57161562Y-28322510D01*
X55266050Y-28322510D01*
X55211806Y-28310236D01*
X54623816Y-28029781D01*
X54503985Y-27972625D01*
X54502818Y-27971968D01*
X54501772Y-27971044D01*
X54431727Y-27938158D01*
X54431061Y-27937842D01*
X54408419Y-27927042D01*
X54408395Y-27927032D01*
X54405775Y-27925782D01*
X54404736Y-27925457D01*
X54404024Y-27925151D01*
X54378176Y-27913015D01*
X54378175Y-27913015D01*
X54370052Y-27909201D01*
X54361187Y-27907821D01*
X54361185Y-27907820D01*
X54344711Y-27905255D01*
X54326528Y-27901023D01*
X54310622Y-27896054D01*
X54310616Y-27896053D01*
X54302053Y-27893378D01*
X54293085Y-27893214D01*
X54293082Y-27893213D01*
X54267052Y-27892736D01*
X54263089Y-27892547D01*
X54259577Y-27892000D01*
X54228043Y-27892000D01*
X54225734Y-27891979D01*
X54156563Y-27890711D01*
X54152760Y-27891748D01*
X54148693Y-27892000D01*
X35854000Y-27892000D01*
X35785879Y-27871998D01*
X35739386Y-27818342D01*
X35728000Y-27766000D01*
X35728000Y-26298171D01*
X35748002Y-26230050D01*
X35801658Y-26183557D01*
X35871932Y-26173453D01*
X35936512Y-26202947D01*
X35961429Y-26232331D01*
X35996230Y-26289121D01*
X36150386Y-26469614D01*
X36330879Y-26623770D01*
X36533265Y-26747793D01*
X36537835Y-26749686D01*
X36537837Y-26749687D01*
X36747988Y-26836734D01*
X36752561Y-26838628D01*
X36833660Y-26858098D01*
X36978554Y-26892885D01*
X36978560Y-26892886D01*
X36983367Y-26894040D01*
X37220000Y-26912663D01*
X37456633Y-26894040D01*
X37461440Y-26892886D01*
X37461446Y-26892885D01*
X37606340Y-26858098D01*
X37687439Y-26838628D01*
X37692012Y-26836734D01*
X37758647Y-26809133D01*
X39595612Y-26809133D01*
X39604325Y-26820653D01*
X39702018Y-26892284D01*
X39709928Y-26897227D01*
X39932890Y-27014533D01*
X39941453Y-27018256D01*
X40179304Y-27101318D01*
X40188313Y-27103732D01*
X40435842Y-27150727D01*
X40445098Y-27151781D01*
X40696857Y-27161673D01*
X40706171Y-27161347D01*
X40956615Y-27133920D01*
X40965792Y-27132219D01*
X41209431Y-27068074D01*
X41218251Y-27065037D01*
X41449736Y-26965583D01*
X41458008Y-26961276D01*
X41672249Y-26828700D01*
X41679188Y-26823658D01*
X41687518Y-26811019D01*
X41681456Y-26800666D01*
X40652812Y-25772022D01*
X40638868Y-25764408D01*
X40637035Y-25764539D01*
X40630420Y-25768790D01*
X39602270Y-26796940D01*
X39595612Y-26809133D01*
X37758647Y-26809133D01*
X37902163Y-26749687D01*
X37902165Y-26749686D01*
X37906735Y-26747793D01*
X38109121Y-26623770D01*
X38289614Y-26469614D01*
X38443770Y-26289121D01*
X38567793Y-26086735D01*
X38598932Y-26011560D01*
X38656734Y-25872012D01*
X38656735Y-25872010D01*
X38658628Y-25867439D01*
X38678693Y-25783861D01*
X38714045Y-25722293D01*
X38777072Y-25689610D01*
X38847763Y-25696190D01*
X38903674Y-25739945D01*
X38924791Y-25788695D01*
X38940274Y-25866535D01*
X38942768Y-25875528D01*
X39027900Y-26112639D01*
X39031700Y-26121174D01*
X39150946Y-26343101D01*
X39155957Y-26350968D01*
X39219446Y-26435990D01*
X39230704Y-26444439D01*
X39243123Y-26437667D01*
X40267978Y-25412812D01*
X40274356Y-25401132D01*
X41004408Y-25401132D01*
X41004539Y-25402965D01*
X41008790Y-25409580D01*
X42039913Y-26440703D01*
X42052293Y-26447463D01*
X42060634Y-26441219D01*
X42186765Y-26245127D01*
X42191212Y-26236936D01*
X42294691Y-26007222D01*
X42297882Y-25998455D01*
X42366269Y-25755976D01*
X42368129Y-25746834D01*
X42400116Y-25495396D01*
X42400597Y-25489108D01*
X42402847Y-25403160D01*
X42402696Y-25396851D01*
X42399500Y-25353839D01*
X43957173Y-25353839D01*
X43957397Y-25358505D01*
X43957397Y-25358511D01*
X43963443Y-25484373D01*
X43969713Y-25614908D01*
X44020704Y-25871256D01*
X44109026Y-26117252D01*
X44111242Y-26121376D01*
X44206237Y-26298171D01*
X44232737Y-26347491D01*
X44235532Y-26351234D01*
X44235534Y-26351237D01*
X44386330Y-26553177D01*
X44386335Y-26553183D01*
X44389122Y-26556915D01*
X44392431Y-26560195D01*
X44392436Y-26560201D01*
X44571426Y-26737635D01*
X44574743Y-26740923D01*
X44578505Y-26743681D01*
X44578508Y-26743684D01*
X44709571Y-26839783D01*
X44785524Y-26895474D01*
X44789667Y-26897654D01*
X44789669Y-26897655D01*
X45012684Y-27014989D01*
X45012689Y-27014991D01*
X45016834Y-27017172D01*
X45263590Y-27103344D01*
X45268183Y-27104216D01*
X45515785Y-27151224D01*
X45515788Y-27151224D01*
X45520374Y-27152095D01*
X45650958Y-27157226D01*
X45776875Y-27162174D01*
X45776881Y-27162174D01*
X45781543Y-27162357D01*
X45860977Y-27153657D01*
X46036707Y-27134412D01*
X46036712Y-27134411D01*
X46041360Y-27133902D01*
X46154116Y-27104216D01*
X46289594Y-27068548D01*
X46289596Y-27068547D01*
X46294117Y-27067357D01*
X46534262Y-26964182D01*
X46756519Y-26826646D01*
X46760082Y-26823629D01*
X46760087Y-26823626D01*
X46952439Y-26660787D01*
X46952440Y-26660786D01*
X46956005Y-26657768D01*
X46983552Y-26626357D01*
X47125257Y-26464774D01*
X47125261Y-26464769D01*
X47128339Y-26461259D01*
X47269733Y-26241437D01*
X47377083Y-26003129D01*
X47390933Y-25954022D01*
X47446760Y-25756076D01*
X47446761Y-25756073D01*
X47448030Y-25751572D01*
X47461571Y-25645130D01*
X47480616Y-25495421D01*
X47480616Y-25495417D01*
X47481014Y-25492291D01*
X47481098Y-25489108D01*
X47483348Y-25403160D01*
X47483431Y-25400000D01*
X47480348Y-25358511D01*
X47480001Y-25353839D01*
X49037173Y-25353839D01*
X49037397Y-25358505D01*
X49037397Y-25358511D01*
X49043443Y-25484373D01*
X49049713Y-25614908D01*
X49100704Y-25871256D01*
X49189026Y-26117252D01*
X49191242Y-26121376D01*
X49286237Y-26298171D01*
X49312737Y-26347491D01*
X49315532Y-26351234D01*
X49315534Y-26351237D01*
X49466330Y-26553177D01*
X49466335Y-26553183D01*
X49469122Y-26556915D01*
X49472431Y-26560195D01*
X49472436Y-26560201D01*
X49651426Y-26737635D01*
X49654743Y-26740923D01*
X49658505Y-26743681D01*
X49658508Y-26743684D01*
X49789571Y-26839783D01*
X49865524Y-26895474D01*
X49869667Y-26897654D01*
X49869669Y-26897655D01*
X50092684Y-27014989D01*
X50092689Y-27014991D01*
X50096834Y-27017172D01*
X50343590Y-27103344D01*
X50348183Y-27104216D01*
X50595785Y-27151224D01*
X50595788Y-27151224D01*
X50600374Y-27152095D01*
X50730958Y-27157226D01*
X50856875Y-27162174D01*
X50856881Y-27162174D01*
X50861543Y-27162357D01*
X50940977Y-27153657D01*
X51116707Y-27134412D01*
X51116712Y-27134411D01*
X51121360Y-27133902D01*
X51234116Y-27104216D01*
X51369594Y-27068548D01*
X51369596Y-27068547D01*
X51374117Y-27067357D01*
X51614262Y-26964182D01*
X51836519Y-26826646D01*
X51840082Y-26823629D01*
X51840087Y-26823626D01*
X52032439Y-26660787D01*
X52032440Y-26660786D01*
X52036005Y-26657768D01*
X52063552Y-26626357D01*
X52205257Y-26464774D01*
X52205261Y-26464769D01*
X52208339Y-26461259D01*
X52349733Y-26241437D01*
X52457083Y-26003129D01*
X52470933Y-25954022D01*
X52518786Y-25784350D01*
X52556528Y-25724216D01*
X52620789Y-25694034D01*
X52691167Y-25703385D01*
X52745318Y-25749300D01*
X52762573Y-25789135D01*
X52781372Y-25867439D01*
X52783265Y-25872010D01*
X52783266Y-25872012D01*
X52841069Y-26011560D01*
X52872207Y-26086735D01*
X52996230Y-26289121D01*
X53150386Y-26469614D01*
X53330879Y-26623770D01*
X53533265Y-26747793D01*
X53537835Y-26749686D01*
X53537837Y-26749687D01*
X53747988Y-26836734D01*
X53752561Y-26838628D01*
X53833660Y-26858098D01*
X53978554Y-26892885D01*
X53978560Y-26892886D01*
X53983367Y-26894040D01*
X54220000Y-26912663D01*
X54456633Y-26894040D01*
X54461440Y-26892886D01*
X54461446Y-26892885D01*
X54606340Y-26858098D01*
X54687439Y-26838628D01*
X54692012Y-26836734D01*
X54902163Y-26749687D01*
X54902165Y-26749686D01*
X54906735Y-26747793D01*
X55109121Y-26623770D01*
X55289614Y-26469614D01*
X55443770Y-26289121D01*
X55567793Y-26086735D01*
X55598932Y-26011560D01*
X55656734Y-25872012D01*
X55656735Y-25872010D01*
X55658628Y-25867439D01*
X55685388Y-25755976D01*
X55712885Y-25641446D01*
X55712886Y-25641440D01*
X55714040Y-25636633D01*
X55732663Y-25400000D01*
X55714040Y-25163367D01*
X55712886Y-25158560D01*
X55712885Y-25158554D01*
X55678098Y-25013660D01*
X55658628Y-24932561D01*
X55567793Y-24713265D01*
X55443770Y-24510879D01*
X55436041Y-24501829D01*
X55292822Y-24334142D01*
X55289614Y-24330386D01*
X55109121Y-24176230D01*
X54906735Y-24052207D01*
X54902165Y-24050314D01*
X54902163Y-24050313D01*
X54692012Y-23963266D01*
X54692010Y-23963265D01*
X54687439Y-23961372D01*
X54606340Y-23941902D01*
X54461446Y-23907115D01*
X54461440Y-23907114D01*
X54456633Y-23905960D01*
X54220000Y-23887337D01*
X53983367Y-23905960D01*
X53978560Y-23907114D01*
X53978554Y-23907115D01*
X53833660Y-23941902D01*
X53752561Y-23961372D01*
X53747990Y-23963265D01*
X53747988Y-23963266D01*
X53537837Y-24050313D01*
X53537835Y-24050314D01*
X53533265Y-24052207D01*
X53330879Y-24176230D01*
X53150386Y-24330386D01*
X53147178Y-24334142D01*
X53003959Y-24501829D01*
X52996230Y-24510879D01*
X52872207Y-24713265D01*
X52781372Y-24932561D01*
X52761653Y-25014697D01*
X52761267Y-25016304D01*
X52725914Y-25077873D01*
X52662888Y-25110555D01*
X52592197Y-25103974D01*
X52536285Y-25060220D01*
X52515855Y-25014697D01*
X52497270Y-24932561D01*
X52486377Y-24884423D01*
X52418176Y-24709042D01*
X52393340Y-24645176D01*
X52393339Y-24645173D01*
X52391647Y-24640823D01*
X52383691Y-24626902D01*
X52264270Y-24417960D01*
X52261951Y-24413902D01*
X52100138Y-24208643D01*
X51909763Y-24029557D01*
X51731600Y-23905960D01*
X51698851Y-23883241D01*
X51698848Y-23883239D01*
X51695009Y-23880576D01*
X51654644Y-23860670D01*
X51464781Y-23767040D01*
X51464778Y-23767039D01*
X51460593Y-23764975D01*
X51414449Y-23750204D01*
X51216123Y-23686720D01*
X51211665Y-23685293D01*
X50953693Y-23643279D01*
X50839942Y-23641790D01*
X50697022Y-23639919D01*
X50697019Y-23639919D01*
X50692345Y-23639858D01*
X50433362Y-23675104D01*
X50182433Y-23748243D01*
X50178180Y-23750203D01*
X50178179Y-23750204D01*
X50127888Y-23773389D01*
X49945072Y-23857668D01*
X49906067Y-23883241D01*
X49730404Y-23998410D01*
X49730399Y-23998414D01*
X49726491Y-24000976D01*
X49531494Y-24175018D01*
X49364363Y-24375970D01*
X49228771Y-24599419D01*
X49127697Y-24840455D01*
X49063359Y-25093783D01*
X49062891Y-25098434D01*
X49062890Y-25098438D01*
X49052245Y-25204159D01*
X49037173Y-25353839D01*
X47480001Y-25353839D01*
X47464407Y-25144000D01*
X47464406Y-25143996D01*
X47464061Y-25139348D01*
X47455320Y-25100715D01*
X47407408Y-24888980D01*
X47406377Y-24884423D01*
X47338176Y-24709042D01*
X47313340Y-24645176D01*
X47313339Y-24645173D01*
X47311647Y-24640823D01*
X47303691Y-24626902D01*
X47184270Y-24417960D01*
X47181951Y-24413902D01*
X47020138Y-24208643D01*
X46829763Y-24029557D01*
X46651600Y-23905960D01*
X46618851Y-23883241D01*
X46618848Y-23883239D01*
X46615009Y-23880576D01*
X46574644Y-23860670D01*
X46384781Y-23767040D01*
X46384778Y-23767039D01*
X46380593Y-23764975D01*
X46334449Y-23750204D01*
X46136123Y-23686720D01*
X46131665Y-23685293D01*
X45873693Y-23643279D01*
X45759942Y-23641790D01*
X45617022Y-23639919D01*
X45617019Y-23639919D01*
X45612345Y-23639858D01*
X45353362Y-23675104D01*
X45102433Y-23748243D01*
X45098180Y-23750203D01*
X45098179Y-23750204D01*
X45047888Y-23773389D01*
X44865072Y-23857668D01*
X44826067Y-23883241D01*
X44650404Y-23998410D01*
X44650399Y-23998414D01*
X44646491Y-24000976D01*
X44451494Y-24175018D01*
X44284363Y-24375970D01*
X44148771Y-24599419D01*
X44047697Y-24840455D01*
X43983359Y-25093783D01*
X43982891Y-25098434D01*
X43982890Y-25098438D01*
X43972245Y-25204159D01*
X43957173Y-25353839D01*
X42399500Y-25353839D01*
X42383912Y-25144074D01*
X42382536Y-25134868D01*
X42326929Y-24889126D01*
X42324205Y-24880215D01*
X42232888Y-24645392D01*
X42228877Y-24636983D01*
X42103854Y-24418240D01*
X42098643Y-24410514D01*
X42061391Y-24363261D01*
X42049466Y-24354790D01*
X42037934Y-24361276D01*
X41012022Y-25387188D01*
X41004408Y-25401132D01*
X40274356Y-25401132D01*
X40275592Y-25398868D01*
X40275461Y-25397035D01*
X40271210Y-25390420D01*
X39241321Y-24360531D01*
X39228013Y-24353264D01*
X39217974Y-24360386D01*
X39207761Y-24372666D01*
X39202346Y-24380258D01*
X39071646Y-24595646D01*
X39067408Y-24603963D01*
X38969981Y-24836299D01*
X38967020Y-24845149D01*
X38923264Y-25017441D01*
X38887110Y-25078542D01*
X38823660Y-25110397D01*
X38753062Y-25102892D01*
X38697728Y-25058410D01*
X38678623Y-25015841D01*
X38659786Y-24937382D01*
X38659783Y-24937373D01*
X38658628Y-24932561D01*
X38567793Y-24713265D01*
X38443770Y-24510879D01*
X38436041Y-24501829D01*
X38292822Y-24334142D01*
X38289614Y-24330386D01*
X38109121Y-24176230D01*
X37906735Y-24052207D01*
X37902165Y-24050314D01*
X37902163Y-24050313D01*
X37753664Y-23988803D01*
X39593216Y-23988803D01*
X39597789Y-23998579D01*
X40627188Y-25027978D01*
X40641132Y-25035592D01*
X40642965Y-25035461D01*
X40649580Y-25031210D01*
X41678419Y-24002371D01*
X41684803Y-23990681D01*
X41675391Y-23978570D01*
X41538593Y-23883670D01*
X41530565Y-23878942D01*
X41304593Y-23767505D01*
X41295960Y-23764017D01*
X41055998Y-23687205D01*
X41046938Y-23685029D01*
X40798260Y-23644529D01*
X40788973Y-23643717D01*
X40537053Y-23640419D01*
X40527742Y-23640989D01*
X40278097Y-23674964D01*
X40268978Y-23676902D01*
X40027098Y-23747404D01*
X40018367Y-23750667D01*
X39789558Y-23856151D01*
X39781406Y-23860670D01*
X39602353Y-23978062D01*
X39593216Y-23988803D01*
X37753664Y-23988803D01*
X37692012Y-23963266D01*
X37692010Y-23963265D01*
X37687439Y-23961372D01*
X37606340Y-23941902D01*
X37461446Y-23907115D01*
X37461440Y-23907114D01*
X37456633Y-23905960D01*
X37220000Y-23887337D01*
X36983367Y-23905960D01*
X36978560Y-23907114D01*
X36978554Y-23907115D01*
X36833660Y-23941902D01*
X36752561Y-23961372D01*
X36747990Y-23963265D01*
X36747988Y-23963266D01*
X36537837Y-24050313D01*
X36537835Y-24050314D01*
X36533265Y-24052207D01*
X36330879Y-24176230D01*
X36150386Y-24330386D01*
X36147178Y-24334142D01*
X36003959Y-24501829D01*
X35996230Y-24510879D01*
X35961431Y-24567666D01*
X35908785Y-24615295D01*
X35838744Y-24626902D01*
X35773546Y-24598799D01*
X35733892Y-24539908D01*
X35728000Y-24501829D01*
X35728000Y-22798177D01*
X35748002Y-22730056D01*
X35801658Y-22683563D01*
X35871932Y-22673459D01*
X35936512Y-22702953D01*
X35961433Y-22732342D01*
X35996228Y-22789122D01*
X36150384Y-22969616D01*
X36330878Y-23123772D01*
X36533264Y-23247794D01*
X36537834Y-23249687D01*
X36537838Y-23249689D01*
X36744729Y-23335386D01*
X36752561Y-23338630D01*
X36833660Y-23358100D01*
X36978554Y-23392887D01*
X36978560Y-23392888D01*
X36983367Y-23394042D01*
X37220000Y-23412665D01*
X37456633Y-23394042D01*
X37461440Y-23392888D01*
X37461446Y-23392887D01*
X37606340Y-23358100D01*
X37687439Y-23338630D01*
X37695271Y-23335386D01*
X37902162Y-23249689D01*
X37902166Y-23249687D01*
X37906736Y-23247794D01*
X38109122Y-23123772D01*
X38289616Y-22969616D01*
X38443772Y-22789122D01*
X38567794Y-22586736D01*
X38641912Y-22407801D01*
X38656736Y-22372012D01*
X38656737Y-22372010D01*
X38658630Y-22367439D01*
X38689568Y-22238573D01*
X38712887Y-22141446D01*
X38712888Y-22141440D01*
X38714042Y-22136633D01*
X38732665Y-21900000D01*
X38714042Y-21663367D01*
X38712888Y-21658560D01*
X38712887Y-21658554D01*
X38659785Y-21437373D01*
X38658630Y-21432561D01*
X38641829Y-21392000D01*
X38569689Y-21217838D01*
X38569687Y-21217834D01*
X38567794Y-21213264D01*
X38443772Y-21010878D01*
X38289616Y-20830384D01*
X38109122Y-20676228D01*
X38052342Y-20641433D01*
X38004711Y-20588785D01*
X37993104Y-20518743D01*
X38021207Y-20453546D01*
X38080098Y-20413892D01*
X38118177Y-20408000D01*
X39586000Y-20408000D01*
X39654121Y-20428002D01*
G37*
%TD.AperFunction*%
%TD*%
M02*
