%TF.GenerationSoftware,KiCad,Pcbnew,(6.0.2)*%
%TF.CreationDate,2022-03-02T15:34:03+00:00*%
%TF.ProjectId,305_Side_Hotswap,3330355f-5369-4646-955f-486f74737761,rev?*%
%TF.SameCoordinates,Original*%
%TF.FileFunction,Copper,L2,Bot*%
%TF.FilePolarity,Positive*%
%FSLAX46Y46*%
G04 Gerber Fmt 4.6, Leading zero omitted, Abs format (unit mm)*
G04 Created by KiCad (PCBNEW (6.0.2)) date 2022-03-02 15:34:03*
%MOMM*%
%LPD*%
G01*
G04 APERTURE LIST*
%TA.AperFunction,ComponentPad*%
%ADD10C,2.500000*%
%TD*%
%TA.AperFunction,ComponentPad*%
%ADD11C,1.524000*%
%TD*%
G04 APERTURE END LIST*
D10*
%TO.P,SW2,1,COM*%
%TO.N,GND*%
X38880000Y-20820000D03*
%TO.P,SW2,2,NO*%
%TO.N,Forward*%
X43960000Y-20820000D03*
%TO.P,SW2,3,NC*%
%TO.N,unconnected-(SW2-Pad3)*%
X49040000Y-20820000D03*
%TD*%
%TO.P,SW1,1,COM*%
%TO.N,GND*%
X55880000Y-20320000D03*
%TO.P,SW1,2,NO*%
%TO.N,Back*%
X60960000Y-20320000D03*
%TO.P,SW1,3,NC*%
%TO.N,unconnected-(SW1-Pad3)*%
X66040000Y-20320000D03*
%TD*%
D11*
%TO.P,U1,1,1*%
%TO.N,GND*%
X61460000Y-24590000D03*
%TO.P,U1,2,2*%
%TO.N,Back*%
X61460000Y-27130000D03*
%TO.P,U1,3,3*%
%TO.N,Forward*%
X61460000Y-29670000D03*
%TD*%
%TA.AperFunction,Conductor*%
%TO.N,GND*%
G36*
X68394121Y-17848002D02*
G01*
X68440614Y-17901658D01*
X68452000Y-17954000D01*
X68452000Y-25936000D01*
X68431998Y-26004121D01*
X68378342Y-26050614D01*
X68326000Y-26062000D01*
X65968702Y-26062000D01*
X65967932Y-26061998D01*
X65967078Y-26061993D01*
X65890348Y-26061524D01*
X65881719Y-26063990D01*
X65881714Y-26063991D01*
X65861952Y-26069639D01*
X65845191Y-26073217D01*
X65824848Y-26076130D01*
X65824838Y-26076133D01*
X65815955Y-26077405D01*
X65792605Y-26088021D01*
X65775093Y-26094464D01*
X65767057Y-26096761D01*
X65750435Y-26101512D01*
X65725452Y-26117274D01*
X65710386Y-26125404D01*
X65683490Y-26137633D01*
X65664061Y-26154374D01*
X65649053Y-26165479D01*
X65627369Y-26179160D01*
X65621427Y-26185888D01*
X65607819Y-26201296D01*
X65595627Y-26213340D01*
X65573253Y-26232619D01*
X65568374Y-26240147D01*
X65568371Y-26240150D01*
X65559304Y-26254139D01*
X65548014Y-26269013D01*
X65531044Y-26288228D01*
X65518490Y-26314966D01*
X65510176Y-26329935D01*
X65494107Y-26354727D01*
X65491535Y-26363327D01*
X65486761Y-26379290D01*
X65480099Y-26396736D01*
X65469201Y-26419948D01*
X65464658Y-26449128D01*
X65460874Y-26465849D01*
X65454986Y-26485536D01*
X65454985Y-26485539D01*
X65452413Y-26494141D01*
X65452358Y-26503116D01*
X65452358Y-26503117D01*
X65452203Y-26528546D01*
X65452170Y-26529328D01*
X65452000Y-26530423D01*
X65452000Y-26561298D01*
X65451998Y-26562068D01*
X65451524Y-26639652D01*
X65451908Y-26640996D01*
X65452000Y-26642341D01*
X65452000Y-30936000D01*
X65431998Y-31004121D01*
X65378342Y-31050614D01*
X65326000Y-31062000D01*
X62049455Y-31062000D01*
X61981334Y-31041998D01*
X61934841Y-30988342D01*
X61924737Y-30918068D01*
X61954231Y-30853488D01*
X61996205Y-30821805D01*
X62092690Y-30776814D01*
X62092695Y-30776811D01*
X62097677Y-30774488D01*
X62199505Y-30703187D01*
X62275270Y-30650136D01*
X62275273Y-30650134D01*
X62279781Y-30646977D01*
X62436977Y-30489781D01*
X62564488Y-30307676D01*
X62566811Y-30302694D01*
X62566814Y-30302689D01*
X62656117Y-30111178D01*
X62656118Y-30111177D01*
X62658440Y-30106196D01*
X62715978Y-29891463D01*
X62735353Y-29670000D01*
X62715978Y-29448537D01*
X62658440Y-29233804D01*
X62656117Y-29228822D01*
X62566814Y-29037311D01*
X62566811Y-29037306D01*
X62564488Y-29032324D01*
X62436977Y-28850219D01*
X62279781Y-28693023D01*
X62275273Y-28689866D01*
X62275270Y-28689864D01*
X62199505Y-28636813D01*
X62097677Y-28565512D01*
X62092695Y-28563189D01*
X62092690Y-28563186D01*
X61987627Y-28514195D01*
X61934342Y-28467278D01*
X61914881Y-28399001D01*
X61935423Y-28331041D01*
X61987627Y-28285805D01*
X62092690Y-28236814D01*
X62092695Y-28236811D01*
X62097677Y-28234488D01*
X62199505Y-28163187D01*
X62275270Y-28110136D01*
X62275273Y-28110134D01*
X62279781Y-28106977D01*
X62436977Y-27949781D01*
X62564488Y-27767676D01*
X62566811Y-27762694D01*
X62566814Y-27762689D01*
X62656117Y-27571178D01*
X62656118Y-27571177D01*
X62658440Y-27566196D01*
X62715978Y-27351463D01*
X62735353Y-27130000D01*
X62715978Y-26908537D01*
X62658440Y-26693804D01*
X62636083Y-26645859D01*
X62566814Y-26497311D01*
X62566811Y-26497306D01*
X62564488Y-26492324D01*
X62559735Y-26485536D01*
X62440136Y-26314730D01*
X62440134Y-26314727D01*
X62436977Y-26310219D01*
X62279781Y-26153023D01*
X62275273Y-26149866D01*
X62275270Y-26149864D01*
X62192479Y-26091893D01*
X62097677Y-26025512D01*
X62092695Y-26023189D01*
X62092690Y-26023186D01*
X61987035Y-25973919D01*
X61933750Y-25927002D01*
X61914289Y-25858725D01*
X61934831Y-25790765D01*
X61987035Y-25745529D01*
X62092445Y-25696376D01*
X62101931Y-25690898D01*
X62145764Y-25660207D01*
X62154139Y-25649729D01*
X62147071Y-25636281D01*
X61472812Y-24962022D01*
X61458868Y-24954408D01*
X61457035Y-24954539D01*
X61450420Y-24958790D01*
X60772207Y-25637003D01*
X60765777Y-25648777D01*
X60775074Y-25660793D01*
X60818069Y-25690898D01*
X60827555Y-25696376D01*
X60932965Y-25745529D01*
X60986250Y-25792446D01*
X61005711Y-25860723D01*
X60985169Y-25928683D01*
X60932965Y-25973919D01*
X60827311Y-26023186D01*
X60827306Y-26023189D01*
X60822324Y-26025512D01*
X60817817Y-26028668D01*
X60817815Y-26028669D01*
X60644730Y-26149864D01*
X60644727Y-26149866D01*
X60640219Y-26153023D01*
X60483023Y-26310219D01*
X60479866Y-26314727D01*
X60479864Y-26314730D01*
X60360265Y-26485536D01*
X60355512Y-26492324D01*
X60353189Y-26497306D01*
X60353186Y-26497311D01*
X60283917Y-26645859D01*
X60261560Y-26693804D01*
X60204022Y-26908537D01*
X60184647Y-27130000D01*
X60204022Y-27351463D01*
X60261560Y-27566196D01*
X60263882Y-27571177D01*
X60263883Y-27571178D01*
X60353186Y-27762689D01*
X60353189Y-27762694D01*
X60355512Y-27767676D01*
X60483023Y-27949781D01*
X60640219Y-28106977D01*
X60644727Y-28110134D01*
X60644730Y-28110136D01*
X60720495Y-28163187D01*
X60822323Y-28234488D01*
X60827305Y-28236811D01*
X60827310Y-28236814D01*
X60932373Y-28285805D01*
X60985658Y-28332722D01*
X61005119Y-28400999D01*
X60984577Y-28468959D01*
X60932373Y-28514195D01*
X60827311Y-28563186D01*
X60827306Y-28563189D01*
X60822324Y-28565512D01*
X60817817Y-28568668D01*
X60817815Y-28568669D01*
X60644730Y-28689864D01*
X60644727Y-28689866D01*
X60640219Y-28693023D01*
X60483023Y-28850219D01*
X60355512Y-29032324D01*
X60353189Y-29037306D01*
X60353186Y-29037311D01*
X60263883Y-29228822D01*
X60261560Y-29233804D01*
X60204022Y-29448537D01*
X60184647Y-29670000D01*
X60204022Y-29891463D01*
X60261560Y-30106196D01*
X60263882Y-30111177D01*
X60263883Y-30111178D01*
X60353186Y-30302689D01*
X60353189Y-30302694D01*
X60355512Y-30307676D01*
X60483023Y-30489781D01*
X60640219Y-30646977D01*
X60644727Y-30650134D01*
X60644730Y-30650136D01*
X60720495Y-30703187D01*
X60822323Y-30774488D01*
X60827305Y-30776811D01*
X60827310Y-30776814D01*
X60923795Y-30821805D01*
X60977080Y-30868722D01*
X60996541Y-30936999D01*
X60975999Y-31004959D01*
X60921977Y-31051025D01*
X60870545Y-31062000D01*
X40094000Y-31062000D01*
X40025879Y-31041998D01*
X39979386Y-30988342D01*
X39968000Y-30936000D01*
X39968000Y-26578702D01*
X39968002Y-26577932D01*
X39968421Y-26509322D01*
X39968476Y-26500348D01*
X39966010Y-26491719D01*
X39966009Y-26491714D01*
X39960361Y-26471952D01*
X39956783Y-26455191D01*
X39953870Y-26434848D01*
X39953867Y-26434838D01*
X39952595Y-26425955D01*
X39941979Y-26402605D01*
X39935536Y-26385093D01*
X39930954Y-26369063D01*
X39928488Y-26360435D01*
X39912726Y-26335452D01*
X39904596Y-26320386D01*
X39892367Y-26293490D01*
X39875626Y-26274061D01*
X39864521Y-26259053D01*
X39855630Y-26244961D01*
X39850840Y-26237369D01*
X39828703Y-26217818D01*
X39816659Y-26205626D01*
X39803239Y-26190051D01*
X39803237Y-26190050D01*
X39797381Y-26183253D01*
X39789853Y-26178374D01*
X39789850Y-26178371D01*
X39775861Y-26169304D01*
X39760987Y-26158014D01*
X39748502Y-26146988D01*
X39741772Y-26141044D01*
X39733646Y-26137229D01*
X39733645Y-26137228D01*
X39727979Y-26134568D01*
X39715034Y-26128490D01*
X39700065Y-26120176D01*
X39675273Y-26104107D01*
X39650709Y-26096761D01*
X39633264Y-26090099D01*
X39628827Y-26088016D01*
X39610052Y-26079201D01*
X39580870Y-26074657D01*
X39564151Y-26070874D01*
X39544464Y-26064986D01*
X39544461Y-26064985D01*
X39535859Y-26062413D01*
X39526884Y-26062358D01*
X39526883Y-26062358D01*
X39520190Y-26062317D01*
X39501444Y-26062203D01*
X39500672Y-26062170D01*
X39499577Y-26062000D01*
X39468702Y-26062000D01*
X39467932Y-26061998D01*
X39394284Y-26061548D01*
X39394283Y-26061548D01*
X39390348Y-26061524D01*
X39389004Y-26061908D01*
X39387659Y-26062000D01*
X36594000Y-26062000D01*
X36525879Y-26041998D01*
X36479386Y-25988342D01*
X36468000Y-25936000D01*
X36468000Y-24595475D01*
X60185628Y-24595475D01*
X60204038Y-24805896D01*
X60205941Y-24816691D01*
X60260609Y-25020715D01*
X60264355Y-25031007D01*
X60353623Y-25222441D01*
X60359103Y-25231932D01*
X60389794Y-25275765D01*
X60400271Y-25284140D01*
X60413718Y-25277072D01*
X61087978Y-24602812D01*
X61094356Y-24591132D01*
X61824408Y-24591132D01*
X61824539Y-24592965D01*
X61828790Y-24599580D01*
X62507003Y-25277793D01*
X62518777Y-25284223D01*
X62530793Y-25274926D01*
X62560897Y-25231932D01*
X62566377Y-25222441D01*
X62655645Y-25031007D01*
X62659391Y-25020715D01*
X62714059Y-24816691D01*
X62715962Y-24805896D01*
X62734372Y-24595475D01*
X62734372Y-24584525D01*
X62715962Y-24374104D01*
X62714059Y-24363309D01*
X62659391Y-24159285D01*
X62655645Y-24148993D01*
X62566377Y-23957559D01*
X62560897Y-23948068D01*
X62530206Y-23904235D01*
X62519729Y-23895860D01*
X62506282Y-23902928D01*
X61832022Y-24577188D01*
X61824408Y-24591132D01*
X61094356Y-24591132D01*
X61095592Y-24588868D01*
X61095461Y-24587035D01*
X61091210Y-24580420D01*
X60412997Y-23902207D01*
X60401223Y-23895777D01*
X60389207Y-23905074D01*
X60359103Y-23948068D01*
X60353623Y-23957559D01*
X60264355Y-24148993D01*
X60260609Y-24159285D01*
X60205941Y-24363309D01*
X60204038Y-24374104D01*
X60185628Y-24584525D01*
X60185628Y-24595475D01*
X36468000Y-24595475D01*
X36468000Y-23530271D01*
X60765860Y-23530271D01*
X60772928Y-23543718D01*
X61447188Y-24217978D01*
X61461132Y-24225592D01*
X61462965Y-24225461D01*
X61469580Y-24221210D01*
X62147793Y-23542997D01*
X62154223Y-23531223D01*
X62144926Y-23519207D01*
X62101931Y-23489102D01*
X62092445Y-23483624D01*
X61901007Y-23394355D01*
X61890715Y-23390609D01*
X61686691Y-23335941D01*
X61675896Y-23334038D01*
X61465475Y-23315628D01*
X61454525Y-23315628D01*
X61244104Y-23334038D01*
X61233309Y-23335941D01*
X61029285Y-23390609D01*
X61018993Y-23394355D01*
X60827559Y-23483623D01*
X60818068Y-23489103D01*
X60774235Y-23519794D01*
X60765860Y-23530271D01*
X36468000Y-23530271D01*
X36468000Y-22229133D01*
X37835612Y-22229133D01*
X37844325Y-22240653D01*
X37942018Y-22312284D01*
X37949928Y-22317227D01*
X38172890Y-22434533D01*
X38181453Y-22438256D01*
X38419304Y-22521318D01*
X38428313Y-22523732D01*
X38675842Y-22570727D01*
X38685098Y-22571781D01*
X38936857Y-22581673D01*
X38946171Y-22581347D01*
X39196615Y-22553920D01*
X39205792Y-22552219D01*
X39449431Y-22488074D01*
X39458251Y-22485037D01*
X39689736Y-22385583D01*
X39698008Y-22381276D01*
X39912249Y-22248700D01*
X39919188Y-22243658D01*
X39927518Y-22231019D01*
X39921456Y-22220666D01*
X38892812Y-21192022D01*
X38878868Y-21184408D01*
X38877035Y-21184539D01*
X38870420Y-21188790D01*
X37842270Y-22216940D01*
X37835612Y-22229133D01*
X36468000Y-22229133D01*
X36468000Y-20778523D01*
X37117898Y-20778523D01*
X37129987Y-21030175D01*
X37131124Y-21039435D01*
X37180274Y-21286535D01*
X37182768Y-21295528D01*
X37267900Y-21532639D01*
X37271700Y-21541174D01*
X37390946Y-21763101D01*
X37395957Y-21770968D01*
X37459446Y-21855990D01*
X37470704Y-21864439D01*
X37483123Y-21857667D01*
X38507978Y-20832812D01*
X38514356Y-20821132D01*
X39244408Y-20821132D01*
X39244539Y-20822965D01*
X39248790Y-20829580D01*
X40279913Y-21860703D01*
X40292293Y-21867463D01*
X40300634Y-21861219D01*
X40426765Y-21665127D01*
X40431212Y-21656936D01*
X40534691Y-21427222D01*
X40537882Y-21418455D01*
X40606269Y-21175976D01*
X40608129Y-21166834D01*
X40640116Y-20915396D01*
X40640597Y-20909108D01*
X40642847Y-20823160D01*
X40642696Y-20816851D01*
X40639500Y-20773839D01*
X42197173Y-20773839D01*
X42197397Y-20778505D01*
X42197397Y-20778511D01*
X42203443Y-20904373D01*
X42209713Y-21034908D01*
X42260704Y-21291256D01*
X42349026Y-21537252D01*
X42351242Y-21541376D01*
X42466455Y-21755799D01*
X42472737Y-21767491D01*
X42475532Y-21771234D01*
X42475534Y-21771237D01*
X42626330Y-21973177D01*
X42626335Y-21973183D01*
X42629122Y-21976915D01*
X42632431Y-21980195D01*
X42632436Y-21980201D01*
X42735488Y-22082357D01*
X42814743Y-22160923D01*
X42818505Y-22163681D01*
X42818508Y-22163684D01*
X43021173Y-22312284D01*
X43025524Y-22315474D01*
X43029667Y-22317654D01*
X43029669Y-22317655D01*
X43252684Y-22434989D01*
X43252689Y-22434991D01*
X43256834Y-22437172D01*
X43503590Y-22523344D01*
X43508183Y-22524216D01*
X43755785Y-22571224D01*
X43755788Y-22571224D01*
X43760374Y-22572095D01*
X43890958Y-22577226D01*
X44016875Y-22582174D01*
X44016881Y-22582174D01*
X44021543Y-22582357D01*
X44100977Y-22573657D01*
X44276707Y-22554412D01*
X44276712Y-22554411D01*
X44281360Y-22553902D01*
X44394116Y-22524216D01*
X44529594Y-22488548D01*
X44529596Y-22488547D01*
X44534117Y-22487357D01*
X44774262Y-22384182D01*
X44996519Y-22246646D01*
X45000082Y-22243629D01*
X45000087Y-22243626D01*
X45192439Y-22080787D01*
X45192440Y-22080786D01*
X45196005Y-22077768D01*
X45274665Y-21988074D01*
X45365257Y-21884774D01*
X45365261Y-21884769D01*
X45368339Y-21881259D01*
X45402326Y-21828421D01*
X45507205Y-21665367D01*
X45509733Y-21661437D01*
X45617083Y-21423129D01*
X45666282Y-21248683D01*
X45686760Y-21176076D01*
X45686761Y-21176073D01*
X45688030Y-21171572D01*
X45705117Y-21037252D01*
X45720616Y-20915421D01*
X45720616Y-20915417D01*
X45721014Y-20912291D01*
X45721098Y-20909108D01*
X45723348Y-20823160D01*
X45723431Y-20820000D01*
X45723197Y-20816851D01*
X45704407Y-20564000D01*
X45704406Y-20563996D01*
X45704061Y-20559348D01*
X45694825Y-20518528D01*
X45647408Y-20308980D01*
X45646377Y-20304423D01*
X45644684Y-20300069D01*
X45553340Y-20065176D01*
X45553339Y-20065173D01*
X45551647Y-20060823D01*
X45548244Y-20054868D01*
X45424270Y-19837960D01*
X45421951Y-19833902D01*
X45260138Y-19628643D01*
X45069763Y-19449557D01*
X44855009Y-19300576D01*
X44819898Y-19283261D01*
X44624781Y-19187040D01*
X44624776Y-19187038D01*
X44620593Y-19184975D01*
X44574449Y-19170204D01*
X44376123Y-19106720D01*
X44371665Y-19105293D01*
X44113693Y-19063279D01*
X43999942Y-19061790D01*
X43857022Y-19059919D01*
X43857019Y-19059919D01*
X43852345Y-19059858D01*
X43593362Y-19095104D01*
X43342433Y-19168243D01*
X43338180Y-19170203D01*
X43338179Y-19170204D01*
X43287888Y-19193389D01*
X43105072Y-19277668D01*
X43066067Y-19303241D01*
X42890404Y-19418410D01*
X42890399Y-19418414D01*
X42886491Y-19420976D01*
X42691494Y-19595018D01*
X42524363Y-19795970D01*
X42521934Y-19799973D01*
X42394943Y-20009248D01*
X42388771Y-20019419D01*
X42287697Y-20260455D01*
X42223359Y-20513783D01*
X42197173Y-20773839D01*
X40639500Y-20773839D01*
X40623912Y-20564074D01*
X40622536Y-20554868D01*
X40566929Y-20309126D01*
X40564205Y-20300215D01*
X40472888Y-20065392D01*
X40468877Y-20056983D01*
X40343854Y-19838240D01*
X40338643Y-19830514D01*
X40301391Y-19783261D01*
X40289466Y-19774790D01*
X40277934Y-19781276D01*
X39252022Y-20807188D01*
X39244408Y-20821132D01*
X38514356Y-20821132D01*
X38515592Y-20818868D01*
X38515461Y-20817035D01*
X38511210Y-20810420D01*
X37481321Y-19780531D01*
X37468013Y-19773264D01*
X37457974Y-19780386D01*
X37447761Y-19792666D01*
X37442346Y-19800258D01*
X37311646Y-20015646D01*
X37307408Y-20023963D01*
X37209981Y-20256299D01*
X37207020Y-20265149D01*
X37145006Y-20509331D01*
X37143384Y-20518528D01*
X37118143Y-20769198D01*
X37117898Y-20778523D01*
X36468000Y-20778523D01*
X36468000Y-19408803D01*
X37833216Y-19408803D01*
X37837789Y-19418579D01*
X38867188Y-20447978D01*
X38881132Y-20455592D01*
X38882965Y-20455461D01*
X38889580Y-20451210D01*
X39918419Y-19422371D01*
X39924803Y-19410681D01*
X39915391Y-19398570D01*
X39778593Y-19303670D01*
X39770565Y-19298942D01*
X39544593Y-19187505D01*
X39535960Y-19184017D01*
X39295998Y-19107205D01*
X39286938Y-19105029D01*
X39038260Y-19064529D01*
X39028973Y-19063717D01*
X38777053Y-19060419D01*
X38767742Y-19060989D01*
X38518097Y-19094964D01*
X38508978Y-19096902D01*
X38267098Y-19167404D01*
X38258367Y-19170667D01*
X38029558Y-19276151D01*
X38021406Y-19280670D01*
X37842353Y-19398062D01*
X37833216Y-19408803D01*
X36468000Y-19408803D01*
X36468000Y-18454000D01*
X36488002Y-18385879D01*
X36541658Y-18339386D01*
X36594000Y-18328000D01*
X49826000Y-18328000D01*
X49894121Y-18348002D01*
X49940614Y-18401658D01*
X49952000Y-18454000D01*
X49952000Y-19106331D01*
X49931998Y-19174452D01*
X49878342Y-19220945D01*
X49808068Y-19231049D01*
X49770275Y-19219338D01*
X49700593Y-19184975D01*
X49654449Y-19170204D01*
X49456123Y-19106720D01*
X49451665Y-19105293D01*
X49193693Y-19063279D01*
X49079942Y-19061790D01*
X48937022Y-19059919D01*
X48937019Y-19059919D01*
X48932345Y-19059858D01*
X48673362Y-19095104D01*
X48422433Y-19168243D01*
X48418180Y-19170203D01*
X48418179Y-19170204D01*
X48367888Y-19193389D01*
X48185072Y-19277668D01*
X48146067Y-19303241D01*
X47970404Y-19418410D01*
X47970399Y-19418414D01*
X47966491Y-19420976D01*
X47771494Y-19595018D01*
X47604363Y-19795970D01*
X47601934Y-19799973D01*
X47474943Y-20009248D01*
X47468771Y-20019419D01*
X47367697Y-20260455D01*
X47303359Y-20513783D01*
X47277173Y-20773839D01*
X47277397Y-20778505D01*
X47277397Y-20778511D01*
X47283443Y-20904373D01*
X47289713Y-21034908D01*
X47340704Y-21291256D01*
X47429026Y-21537252D01*
X47431242Y-21541376D01*
X47546455Y-21755799D01*
X47552737Y-21767491D01*
X47555532Y-21771234D01*
X47555534Y-21771237D01*
X47706330Y-21973177D01*
X47706335Y-21973183D01*
X47709122Y-21976915D01*
X47712431Y-21980195D01*
X47712436Y-21980201D01*
X47815488Y-22082357D01*
X47894743Y-22160923D01*
X47898505Y-22163681D01*
X47898508Y-22163684D01*
X48101173Y-22312284D01*
X48105524Y-22315474D01*
X48109667Y-22317654D01*
X48109669Y-22317655D01*
X48332684Y-22434989D01*
X48332689Y-22434991D01*
X48336834Y-22437172D01*
X48583590Y-22523344D01*
X48588183Y-22524216D01*
X48835785Y-22571224D01*
X48835788Y-22571224D01*
X48840374Y-22572095D01*
X48970958Y-22577226D01*
X49096875Y-22582174D01*
X49096881Y-22582174D01*
X49101543Y-22582357D01*
X49180977Y-22573657D01*
X49356707Y-22554412D01*
X49356712Y-22554411D01*
X49361360Y-22553902D01*
X49474116Y-22524216D01*
X49609594Y-22488548D01*
X49609596Y-22488547D01*
X49614117Y-22487357D01*
X49854262Y-22384182D01*
X50076519Y-22246646D01*
X50080082Y-22243629D01*
X50080087Y-22243626D01*
X50272439Y-22080787D01*
X50272440Y-22080786D01*
X50276005Y-22077768D01*
X50448339Y-21881259D01*
X50450409Y-21878041D01*
X50507199Y-21835807D01*
X50550860Y-21828000D01*
X54451298Y-21828000D01*
X54452069Y-21828002D01*
X54529652Y-21828476D01*
X54538281Y-21826010D01*
X54538286Y-21826009D01*
X54558048Y-21820361D01*
X54574809Y-21816783D01*
X54595152Y-21813870D01*
X54595162Y-21813867D01*
X54604045Y-21812595D01*
X54627395Y-21801979D01*
X54644907Y-21795536D01*
X54660937Y-21790954D01*
X54669565Y-21788488D01*
X54694548Y-21772726D01*
X54709614Y-21764596D01*
X54736510Y-21752367D01*
X54736512Y-21752366D01*
X54736987Y-21753410D01*
X54796947Y-21735949D01*
X54865023Y-21756103D01*
X54871171Y-21760337D01*
X54942018Y-21812284D01*
X54949928Y-21817227D01*
X55172890Y-21934533D01*
X55181453Y-21938256D01*
X55419304Y-22021318D01*
X55428313Y-22023732D01*
X55675842Y-22070727D01*
X55685098Y-22071781D01*
X55936857Y-22081673D01*
X55946171Y-22081347D01*
X56196615Y-22053920D01*
X56205792Y-22052219D01*
X56449431Y-21988074D01*
X56458251Y-21985037D01*
X56689736Y-21885583D01*
X56698008Y-21881276D01*
X56912249Y-21748700D01*
X56919188Y-21743658D01*
X56927518Y-21731019D01*
X56921456Y-21720666D01*
X55609885Y-20409095D01*
X55575859Y-20346783D01*
X55577694Y-20321132D01*
X56244408Y-20321132D01*
X56244539Y-20322965D01*
X56248790Y-20329580D01*
X57279913Y-21360703D01*
X57292293Y-21367463D01*
X57300634Y-21361219D01*
X57426765Y-21165127D01*
X57431212Y-21156936D01*
X57534691Y-20927222D01*
X57537882Y-20918455D01*
X57606269Y-20675976D01*
X57608129Y-20666834D01*
X57640116Y-20415396D01*
X57640597Y-20409108D01*
X57642847Y-20323160D01*
X57642696Y-20316851D01*
X57639500Y-20273839D01*
X59197173Y-20273839D01*
X59197397Y-20278505D01*
X59197397Y-20278511D01*
X59199542Y-20323160D01*
X59209713Y-20534908D01*
X59260704Y-20791256D01*
X59349026Y-21037252D01*
X59351242Y-21041376D01*
X59428166Y-21184539D01*
X59472737Y-21267491D01*
X59475532Y-21271234D01*
X59475534Y-21271237D01*
X59626330Y-21473177D01*
X59626335Y-21473183D01*
X59629122Y-21476915D01*
X59632431Y-21480195D01*
X59632436Y-21480201D01*
X59755073Y-21601772D01*
X59814743Y-21660923D01*
X59818505Y-21663681D01*
X59818508Y-21663684D01*
X60021750Y-21812707D01*
X60025524Y-21815474D01*
X60029667Y-21817654D01*
X60029669Y-21817655D01*
X60252684Y-21934989D01*
X60252689Y-21934991D01*
X60256834Y-21937172D01*
X60503590Y-22023344D01*
X60508183Y-22024216D01*
X60755785Y-22071224D01*
X60755788Y-22071224D01*
X60760374Y-22072095D01*
X60890959Y-22077226D01*
X61016875Y-22082174D01*
X61016881Y-22082174D01*
X61021543Y-22082357D01*
X61100977Y-22073657D01*
X61276707Y-22054412D01*
X61276712Y-22054411D01*
X61281360Y-22053902D01*
X61394116Y-22024216D01*
X61529594Y-21988548D01*
X61529596Y-21988547D01*
X61534117Y-21987357D01*
X61558422Y-21976915D01*
X61769972Y-21886025D01*
X61774262Y-21884182D01*
X61864283Y-21828476D01*
X61992547Y-21749104D01*
X61992548Y-21749104D01*
X61996519Y-21746646D01*
X62000082Y-21743629D01*
X62000087Y-21743626D01*
X62192439Y-21580787D01*
X62192440Y-21580786D01*
X62196005Y-21577768D01*
X62290470Y-21470052D01*
X62365257Y-21384774D01*
X62365261Y-21384769D01*
X62368339Y-21381259D01*
X62509733Y-21161437D01*
X62617083Y-20923129D01*
X62643467Y-20829580D01*
X62686760Y-20676076D01*
X62686761Y-20676073D01*
X62688030Y-20671572D01*
X62704832Y-20539496D01*
X62720616Y-20415421D01*
X62720616Y-20415417D01*
X62721014Y-20412291D01*
X62721098Y-20409108D01*
X62723348Y-20323160D01*
X62723431Y-20320000D01*
X62720001Y-20273839D01*
X64277173Y-20273839D01*
X64277397Y-20278505D01*
X64277397Y-20278511D01*
X64279542Y-20323160D01*
X64289713Y-20534908D01*
X64340704Y-20791256D01*
X64429026Y-21037252D01*
X64431242Y-21041376D01*
X64508166Y-21184539D01*
X64552737Y-21267491D01*
X64555532Y-21271234D01*
X64555534Y-21271237D01*
X64706330Y-21473177D01*
X64706335Y-21473183D01*
X64709122Y-21476915D01*
X64712431Y-21480195D01*
X64712436Y-21480201D01*
X64835073Y-21601772D01*
X64894743Y-21660923D01*
X64898505Y-21663681D01*
X64898508Y-21663684D01*
X65101750Y-21812707D01*
X65105524Y-21815474D01*
X65109667Y-21817654D01*
X65109669Y-21817655D01*
X65332684Y-21934989D01*
X65332689Y-21934991D01*
X65336834Y-21937172D01*
X65583590Y-22023344D01*
X65588183Y-22024216D01*
X65835785Y-22071224D01*
X65835788Y-22071224D01*
X65840374Y-22072095D01*
X65970959Y-22077226D01*
X66096875Y-22082174D01*
X66096881Y-22082174D01*
X66101543Y-22082357D01*
X66180977Y-22073657D01*
X66356707Y-22054412D01*
X66356712Y-22054411D01*
X66361360Y-22053902D01*
X66474116Y-22024216D01*
X66609594Y-21988548D01*
X66609596Y-21988547D01*
X66614117Y-21987357D01*
X66638422Y-21976915D01*
X66849972Y-21886025D01*
X66854262Y-21884182D01*
X66944283Y-21828476D01*
X67072547Y-21749104D01*
X67072548Y-21749104D01*
X67076519Y-21746646D01*
X67080082Y-21743629D01*
X67080087Y-21743626D01*
X67272439Y-21580787D01*
X67272440Y-21580786D01*
X67276005Y-21577768D01*
X67370470Y-21470052D01*
X67445257Y-21384774D01*
X67445261Y-21384769D01*
X67448339Y-21381259D01*
X67589733Y-21161437D01*
X67697083Y-20923129D01*
X67723467Y-20829580D01*
X67766760Y-20676076D01*
X67766761Y-20676073D01*
X67768030Y-20671572D01*
X67784832Y-20539496D01*
X67800616Y-20415421D01*
X67800616Y-20415417D01*
X67801014Y-20412291D01*
X67801098Y-20409108D01*
X67803348Y-20323160D01*
X67803431Y-20320000D01*
X67784061Y-20059348D01*
X67776055Y-20023963D01*
X67727408Y-19808980D01*
X67726377Y-19804423D01*
X67717030Y-19780386D01*
X67633340Y-19565176D01*
X67633339Y-19565173D01*
X67631647Y-19560823D01*
X67501951Y-19333902D01*
X67340138Y-19128643D01*
X67149763Y-18949557D01*
X66935009Y-18800576D01*
X66930816Y-18798508D01*
X66704781Y-18687040D01*
X66704778Y-18687039D01*
X66700593Y-18684975D01*
X66654449Y-18670204D01*
X66456123Y-18606720D01*
X66451665Y-18605293D01*
X66193693Y-18563279D01*
X66079942Y-18561790D01*
X65937022Y-18559919D01*
X65937019Y-18559919D01*
X65932345Y-18559858D01*
X65673362Y-18595104D01*
X65422433Y-18668243D01*
X65418180Y-18670203D01*
X65418179Y-18670204D01*
X65367888Y-18693389D01*
X65185072Y-18777668D01*
X65146067Y-18803241D01*
X64970404Y-18918410D01*
X64970399Y-18918414D01*
X64966491Y-18920976D01*
X64771494Y-19095018D01*
X64604363Y-19295970D01*
X64583571Y-19330234D01*
X64528508Y-19420976D01*
X64468771Y-19519419D01*
X64367697Y-19760455D01*
X64303359Y-20013783D01*
X64277173Y-20273839D01*
X62720001Y-20273839D01*
X62704061Y-20059348D01*
X62696055Y-20023963D01*
X62647408Y-19808980D01*
X62646377Y-19804423D01*
X62637030Y-19780386D01*
X62553340Y-19565176D01*
X62553339Y-19565173D01*
X62551647Y-19560823D01*
X62421951Y-19333902D01*
X62260138Y-19128643D01*
X62069763Y-18949557D01*
X61855009Y-18800576D01*
X61850816Y-18798508D01*
X61624781Y-18687040D01*
X61624778Y-18687039D01*
X61620593Y-18684975D01*
X61574449Y-18670204D01*
X61376123Y-18606720D01*
X61371665Y-18605293D01*
X61113693Y-18563279D01*
X60999942Y-18561790D01*
X60857022Y-18559919D01*
X60857019Y-18559919D01*
X60852345Y-18559858D01*
X60593362Y-18595104D01*
X60342433Y-18668243D01*
X60338180Y-18670203D01*
X60338179Y-18670204D01*
X60287888Y-18693389D01*
X60105072Y-18777668D01*
X60066067Y-18803241D01*
X59890404Y-18918410D01*
X59890399Y-18918414D01*
X59886491Y-18920976D01*
X59691494Y-19095018D01*
X59524363Y-19295970D01*
X59503571Y-19330234D01*
X59448508Y-19420976D01*
X59388771Y-19519419D01*
X59287697Y-19760455D01*
X59223359Y-20013783D01*
X59197173Y-20273839D01*
X57639500Y-20273839D01*
X57623912Y-20064074D01*
X57622536Y-20054868D01*
X57566929Y-19809126D01*
X57564205Y-19800215D01*
X57472888Y-19565392D01*
X57468877Y-19556983D01*
X57343854Y-19338240D01*
X57338643Y-19330514D01*
X57301391Y-19283261D01*
X57289466Y-19274790D01*
X57277934Y-19281276D01*
X56252022Y-20307188D01*
X56244408Y-20321132D01*
X55577694Y-20321132D01*
X55580924Y-20275968D01*
X55609885Y-20230905D01*
X56918419Y-18922371D01*
X56924803Y-18910681D01*
X56915391Y-18898570D01*
X56778593Y-18803670D01*
X56770565Y-18798942D01*
X56544593Y-18687505D01*
X56535960Y-18684017D01*
X56295998Y-18607205D01*
X56286938Y-18605029D01*
X56038260Y-18564529D01*
X56028973Y-18563717D01*
X55777053Y-18560419D01*
X55767742Y-18560989D01*
X55518097Y-18594964D01*
X55508978Y-18596902D01*
X55267098Y-18667404D01*
X55258362Y-18670669D01*
X55146751Y-18722123D01*
X55076514Y-18732478D01*
X55011828Y-18703216D01*
X54973231Y-18643627D01*
X54968000Y-18607697D01*
X54968000Y-17954000D01*
X54988002Y-17885879D01*
X55041658Y-17839386D01*
X55094000Y-17828000D01*
X68326000Y-17828000D01*
X68394121Y-17848002D01*
G37*
%TD.AperFunction*%
%TD*%
M02*
