%TF.GenerationSoftware,KiCad,Pcbnew,(6.0.2)*%
%TF.CreationDate,2022-03-02T15:34:03+00:00*%
%TF.ProjectId,305_Side_Hotswap,3330355f-5369-4646-955f-486f74737761,rev?*%
%TF.SameCoordinates,Original*%
%TF.FileFunction,Soldermask,Top*%
%TF.FilePolarity,Negative*%
%FSLAX46Y46*%
G04 Gerber Fmt 4.6, Leading zero omitted, Abs format (unit mm)*
G04 Created by KiCad (PCBNEW (6.0.2)) date 2022-03-02 15:34:03*
%MOMM*%
%LPD*%
G01*
G04 APERTURE LIST*
%ADD10C,0.300000*%
%ADD11C,2.500000*%
%ADD12C,1.524000*%
G04 APERTURE END LIST*
D10*
X54601829Y-27277142D02*
X54387544Y-27348571D01*
X54030401Y-27348571D01*
X53887544Y-27277142D01*
X53816115Y-27205714D01*
X53744686Y-27062857D01*
X53744686Y-26920000D01*
X53816115Y-26777142D01*
X53887544Y-26705714D01*
X54030401Y-26634285D01*
X54316115Y-26562857D01*
X54458972Y-26491428D01*
X54530401Y-26420000D01*
X54601829Y-26277142D01*
X54601829Y-26134285D01*
X54530401Y-25991428D01*
X54458972Y-25920000D01*
X54316115Y-25848571D01*
X53958972Y-25848571D01*
X53744686Y-25920000D01*
X53101829Y-27348571D02*
X53101829Y-25848571D01*
X52387544Y-27348571D02*
X52387544Y-25848571D01*
X52030401Y-25848571D01*
X51816115Y-25920000D01*
X51673258Y-26062857D01*
X51601829Y-26205714D01*
X51530401Y-26491428D01*
X51530401Y-26705714D01*
X51601829Y-26991428D01*
X51673258Y-27134285D01*
X51816115Y-27277142D01*
X52030401Y-27348571D01*
X52387544Y-27348571D01*
X50887544Y-26562857D02*
X50387544Y-26562857D01*
X50173258Y-27348571D02*
X50887544Y-27348571D01*
X50887544Y-25848571D01*
X50173258Y-25848571D01*
D11*
%TO.C,SW2*%
X38880000Y-20820000D03*
X43960000Y-20820000D03*
X49040000Y-20820000D03*
%TD*%
%TO.C,SW1*%
X55880000Y-20320000D03*
X60960000Y-20320000D03*
X66040000Y-20320000D03*
%TD*%
D12*
%TO.C,U1*%
X61460000Y-24590000D03*
X61460000Y-27130000D03*
X61460000Y-29670000D03*
%TD*%
M02*
